<svg width="24" height="24" viewBox="0 0 24 24" fill="none" xmlns="http://www.w3.org/2000/svg">
<path d="M7.26644 11.6273C6.97244 11.6273 6.67844 11.55 6.41144 11.3948C6.15011 11.2461 5.93309 11.0305 5.78269 10.7702C5.63228 10.5098 5.55394 10.2142 5.55569 9.9135V6.5865C5.55569 5.96775 5.87519 5.4135 6.41069 5.1045C6.67018 4.95265 6.96541 4.8726 7.26607 4.8726C7.56672 4.8726 7.86196 4.95265 8.12144 5.1045L11.0029 6.768C11.5392 7.07775 11.8587 7.63125 11.8587 8.25C11.8587 8.86875 11.5392 9.42225 11.0037 9.732L8.12144 11.3948C7.85369 11.55 7.55969 11.6273 7.26644 11.6273ZM7.26644 6.3735C7.22941 6.37407 7.19319 6.38442 7.16144 6.4035C7.12856 6.42118 7.10125 6.44766 7.08257 6.47998C7.06389 6.5123 7.05459 6.54919 7.05569 6.5865V9.9135C7.05569 10.0148 7.11269 10.0688 7.16069 10.0965C7.19226 10.1163 7.22878 10.1269 7.26607 10.1269C7.30335 10.1269 7.33988 10.1163 7.37144 10.0965L10.2537 8.43225C10.3407 8.382 10.3587 8.3055 10.3587 8.25C10.3587 8.1945 10.3407 8.118 10.2537 8.06775L7.37144 6.4035C7.3397 6.38442 7.30348 6.37407 7.26644 6.3735Z" fill="#F5C042"/>
<path d="M8.25 16.5C3.70125 16.5 0 12.7987 0 8.25C0 3.70125 3.70125 0 8.25 0C12.7987 0 16.5 3.70125 16.5 8.25C16.5 12.7987 12.7987 16.5 8.25 16.5ZM8.25 1.5C4.5285 1.5 1.5 4.5285 1.5 8.25C1.5 11.9715 4.5285 15 8.25 15C11.9715 15 15 11.9715 15 8.25C15 4.5285 11.9715 1.5 8.25 1.5Z" fill="#F5C042"/>
<path d="M21.75 24H11.25C10.0095 24 9 22.9905 9 21.75V17.8875C9 17.6886 9.07902 17.4978 9.21967 17.3572C9.36032 17.2165 9.55109 17.1375 9.75 17.1375C9.94891 17.1375 10.1397 17.2165 10.2803 17.3572C10.421 17.4978 10.5 17.6886 10.5 17.8875V21.75C10.5 22.1632 10.8368 22.5 11.25 22.5H21.75C22.1632 22.5 22.5 22.1632 22.5 21.75V11.25C22.5 10.8368 22.1632 10.5 21.75 10.5H17.8875C17.6886 10.5 17.4978 10.421 17.3572 10.2803C17.2165 10.1397 17.1375 9.94891 17.1375 9.75C17.1375 9.55109 17.2165 9.36032 17.3572 9.21967C17.4978 9.07902 17.6886 9 17.8875 9H21.75C22.9905 9 24 10.0095 24 11.25V21.75C24 22.9905 22.9905 24 21.75 24Z" fill="#F5C042"/>
<path d="M18.0973 24C17.972 24 17.8487 23.9687 17.7387 23.9088C17.6286 23.8489 17.5353 23.7625 17.4673 23.6573L13.8748 18.0923L10.6828 23.0453C10.6305 23.1296 10.562 23.2027 10.4812 23.2604C10.4004 23.318 10.309 23.3591 10.2123 23.3812C10.1155 23.4032 10.0154 23.4059 9.91758 23.389C9.8198 23.3721 9.72634 23.3359 9.64263 23.2826C9.55892 23.2293 9.48662 23.16 9.42992 23.0785C9.37321 22.9971 9.33323 22.9052 9.31229 22.8082C9.29136 22.7112 9.28988 22.611 9.30794 22.5134C9.32601 22.4159 9.36325 22.3228 9.41753 22.2398L12.6148 17.2785C12.8885 16.8495 13.3603 16.5923 13.8748 16.5923C14.3893 16.5923 14.861 16.8495 15.137 17.2808L18.7273 22.8428C18.8005 22.956 18.8419 23.0869 18.8469 23.2217C18.852 23.3565 18.8207 23.4901 18.7562 23.6086C18.6917 23.7271 18.5965 23.8259 18.4805 23.8948C18.3645 23.9637 18.2322 24 18.0973 24Z" fill="#F5C042"/>
<path d="M21.7497 24H18.0972C17.8983 24 17.7075 23.921 17.5668 23.7803C17.4262 23.6397 17.3472 23.4489 17.3472 23.25C17.3472 23.0511 17.4262 22.8603 17.5668 22.7197C17.7075 22.579 17.8983 22.5 18.0972 22.5H21.7497C21.9486 22.5 22.1393 22.579 22.28 22.7197C22.4207 22.8603 22.4997 23.0511 22.4997 23.25C22.4997 23.4489 22.4207 23.6397 22.28 23.7803C22.1393 23.921 21.9486 24 21.7497 24Z" fill="#F5C042"/>
<path d="M22.5075 23.79C22.3821 23.79 22.2588 23.7585 22.1488 23.6985C22.0387 23.6385 21.9454 23.5518 21.8775 23.4465L19.875 20.3415L18.2333 22.8915C18.1799 22.9743 18.1107 23.0458 18.0297 23.1019C17.9487 23.158 17.8574 23.1976 17.7611 23.2184C17.6648 23.2393 17.5653 23.2409 17.4683 23.2233C17.3714 23.2057 17.2788 23.1691 17.196 23.1157C17.1132 23.0624 17.0417 22.9932 16.9856 22.9122C16.9295 22.8312 16.8899 22.7399 16.8691 22.6436C16.8482 22.5473 16.8466 22.4478 16.8642 22.3508C16.8818 22.2539 16.9184 22.1613 16.9717 22.0785L18.6143 19.5285C18.8888 19.0995 19.3605 18.8422 19.875 18.8422C20.3895 18.8422 20.8613 19.0995 21.1373 19.5307L23.1375 22.6335C23.2105 22.7467 23.2517 22.8776 23.2567 23.0123C23.2617 23.1469 23.2303 23.2804 23.1658 23.3988C23.1014 23.5171 23.0062 23.6159 22.8904 23.6847C22.7745 23.7536 22.6423 23.7899 22.5075 23.79ZM18 16.5C17.1727 16.5 16.5 15.8272 16.5 15C16.5 14.1727 17.1727 13.5 18 13.5C18.8273 13.5 19.5 14.1727 19.5 15C19.5 15.8272 18.8273 16.5 18 16.5Z" fill="#F5C042"/>
</svg>
