<svg width="17" height="23" viewBox="0 0 17 23" fill="none" xmlns="http://www.w3.org/2000/svg">
<path d="M6.23333 23C4.49555 23 3.02222 22.3867 1.81333 21.16C0.604444 19.9333 0 18.4383 0 16.675V4.6C0 3.335 0.443889 2.25208 1.33167 1.35125C2.21944 0.450416 3.28667 0 4.53333 0C5.78 0 6.84722 0.450416 7.735 1.35125C8.62278 2.25208 9.06666 3.335 9.06666 4.6V13.8H7.36666V4.6C7.36666 3.795 7.09278 3.11458 6.545 2.55875C5.99722 2.00292 5.32667 1.725 4.53333 1.725C3.74 1.725 3.06944 2.00292 2.52167 2.55875C1.97389 3.11458 1.7 3.795 1.7 4.6V16.675C1.7 17.94 2.14389 19.0229 3.03167 19.9237C3.91944 20.8246 4.98667 21.275 6.23333 21.275C6.78111 21.275 7.29602 21.1838 7.77806 21.0013C8.26011 20.8188 8.68964 20.5651 9.06666 20.24V22.31C8.63222 22.5208 8.17889 22.6887 7.70667 22.8137C7.23444 22.9387 6.74333 23.0008 6.23333 23ZM11.3333 18.4H9.06666C8.74555 18.4 8.4762 18.2896 8.2586 18.0688C8.041 17.848 7.93258 17.5751 7.93333 17.25C7.93333 16.9242 8.04213 16.6508 8.25973 16.43C8.47733 16.2092 8.74631 16.0992 9.06666 16.1H11.3333V13.8C11.3333 13.4742 11.4421 13.2008 11.6597 12.98C11.8773 12.7592 12.1463 12.6492 12.4667 12.65C12.7878 12.65 13.0571 12.7604 13.2747 12.9812C13.4923 13.202 13.6008 13.4749 13.6 13.8V16.1H15.8667C16.1878 16.1 16.4571 16.2104 16.6747 16.4312C16.8923 16.652 17.0008 16.9249 17 17.25C17 17.5758 16.8912 17.8491 16.6736 18.0699C16.456 18.2907 16.187 18.4008 15.8667 18.4H13.6V20.7C13.6 21.0258 13.4912 21.2991 13.2736 21.5199C13.056 21.7407 12.787 21.8508 12.4667 21.85C12.1456 21.85 11.8762 21.7396 11.6586 21.5188C11.441 21.298 11.3326 21.0251 11.3333 20.7V18.4ZM6.23333 16.675V18.4C5.44 18.4 4.76944 18.1221 4.22167 17.5662C3.67389 17.0104 3.4 16.33 3.4 15.525V5.4625C3.4 5.21333 3.48047 5.00748 3.6414 4.84495C3.80233 4.68242 4.0052 4.60077 4.25 4.6C4.49555 4.6 4.69842 4.68165 4.8586 4.84495C5.01878 5.00825 5.09924 5.2141 5.1 5.4625V15.525C5.1 15.8508 5.2088 16.1241 5.4264 16.3449C5.644 16.5657 5.91298 16.6758 6.23333 16.675ZM10.7667 10.35V5.4625C10.7667 5.21333 10.8471 5.00748 11.0081 4.84495C11.169 4.68242 11.3719 4.60077 11.6167 4.6C11.8622 4.6 12.0651 4.68165 12.2253 4.84495C12.3854 5.00825 12.4659 5.2141 12.4667 5.4625V10.35H10.7667Z" fill="#83B94F"/>
</svg>
